<?xml version="1.0" standalone="no"?>
<!DOCTYPE svg PUBLIC "-//W3C//DTD SVG 20010904//EN"
 "http://www.w3.org/TR/2001/REC-SVG-20010904/DTD/svg10.dtd">
<svg version="1.0" xmlns="http://www.w3.org/2000/svg"
 width="200.000000pt" height="200.000000pt" viewBox="0 0 200.000000 200.000000"
 preserveAspectRatio="xMidYMid meet">

<g transform="translate(0.000000,200.000000) scale(0.100000,-0.100000)"
fill="#000000" stroke="none">
<path d="M830 1845 c-282 -56 -534 -270 -635 -540 -123 -325 -40 -685 213
-927 165 -157 365 -238 592 -238 227 0 427 81 592 238 257 245 337 606 209
938 -83 216 -277 407 -496 489 -142 54 -329 69 -475 40z m380 -203 c198 -65
370 -239 433 -437 32 -101 32 -309 0 -410 -64 -200 -238 -374 -438 -438 -58
-18 -93 -22 -205 -22 -112 0 -147 4 -205 22 -198 63 -372 236 -437 433 -33
100 -37 282 -8 386 62 228 232 402 460 471 65 20 92 22 205 20 99 -3 145 -9
195 -25z"/>
</g>
</svg>
