<?xml version="1.0" standalone="no"?>
<!DOCTYPE svg PUBLIC "-//W3C//DTD SVG 20010904//EN"
 "http://www.w3.org/TR/2001/REC-SVG-20010904/DTD/svg10.dtd">
<svg version="1.0" xmlns="http://www.w3.org/2000/svg"
 width="200.000000pt" height="200.000000pt" viewBox="0 0 200.000000 200.000000"
 preserveAspectRatio="xMidYMid meet">

<g transform="translate(0.000000,200.000000) scale(0.100000,-0.100000)"
fill="#000000" stroke="none">
<path d="M390 1821 c-86 -28 -150 -82 -191 -161 -34 -64 -34 -186 0 -250 14
-26 98 -120 204 -227 l181 -183 -181 -182 c-106 -108 -190 -202 -204 -228 -34
-64 -34 -186 0 -250 32 -61 76 -107 136 -138 69 -37 188 -38 255 -3 26 14 120
98 227 204 l183 181 182 -181 c108 -106 202 -190 228 -204 67 -35 186 -34 256
3 101 53 158 148 158 263 0 114 -18 143 -227 352 l-181 183 181 183 c106 107
190 201 204 227 33 63 34 186 1 247 -33 64 -79 111 -136 141 -70 37 -189 38
-256 3 -26 -14 -120 -98 -227 -204 l-183 -181 -182 181 c-113 111 -200 189
-228 203 -48 25 -155 36 -200 21z"/>
</g>
</svg>
